# xmcd
#
# Track frame offsets: 
#        150
#        16574
#        40019
#        59804
#        75179
#        94908
#        130787
#        154116
#        175953
#        200182
#        225470
#
# Disc length: 3368 seconds
#
# Revision: 0
# Processed by: cddbd v1.5.2PL0 Copyright (c) Steve Scherf et al.
# Submitted via: ExactAudioCopy v0.99pb5
#
DISCID=820d260b
DTITLE=Blues Divine - Shine Like The Sun
DYEAR=1900
DGENRE=Blues
TTITLE0=Knockin'
TTITLE1=Down By The River
TTITLE2=Don't Settle For Less
TTITLE3=Apocalypse Blues
TTITLE4=LA Breakdown
TTITLE5=Brother, Sister
TTITLE6=Axle Grease
TTITLE7=Sure Sign
TTITLE8=My Father's House
TTITLE9=Shine Like The Sun
TTITLE10=Sacred Ground
EXTD=
EXTT0=
EXTT1=
EXTT2=
EXTT3=
EXTT4=
EXTT5=
EXTT6=
EXTT7=
EXTT8=
EXTT9=
EXTT10=
PLAYORDER=
